<svg width="45" height="45" viewBox="0 0 45 45" fill="none" xmlns="http://www.w3.org/2000/svg">
<rect width="45" height="45" rx="4" fill="#01AF57"/>
<path d="M14 15.8035C14 14.075 15.1991 12.5778 16.8859 12.2004C19.4462 11.6274 21.7705 13.8328 21.3326 16.4197L18.8144 31.2964C18.6294 32.3891 17.727 33.2173 16.6225 33.3079C15.2102 33.4238 14 32.3089 14 30.8918V15.8035Z" fill="white"/>
<path d="M17.75 12.1077H32L30.125 15.4307L17.75 15.8V12.1077Z" fill="white"/>
<path d="M30.5 31.3076H18.5V33.945C18.5 34.5276 19.2959 34.9999 20.2778 34.9999H28.2778C29.2596 34.9999 30.5 34.5276 30.5 33.945V31.3076Z" fill="white"/>
<path d="M24.6229 25.636L24.6217 25.635L22.0978 23.6198L22.0969 23.6191C21.9541 23.5044 21.85 23.3277 21.85 23.1188C21.85 22.91 21.954 22.7334 22.0965 22.6188C22.0966 22.6187 22.0967 22.6186 22.0969 22.6185L22.3473 22.9304C22.3785 22.9053 22.4155 22.8854 22.4563 22.8719L24.6229 25.636ZM24.6229 25.636C24.6941 25.6923 24.774 25.7335 24.8564 25.7604L24.6229 25.636ZM30.4294 19.9958L30.4303 19.9951C30.5712 19.8833 30.7463 19.8307 30.915 19.8307C31.0836 19.8307 31.2585 19.8832 31.3993 19.9949C31.3994 19.9949 31.3995 19.995 31.3997 19.9951L31.151 20.3084L30.4294 19.9958ZM30.4294 19.9958L25.1089 24.244L23.0735 22.6188C23.0732 22.6186 23.073 22.6184 23.0727 22.6182M30.4294 19.9958L23.0727 22.6182M23.0727 22.6182C23.0019 22.5613 22.9223 22.5197 22.84 22.4923L23.0727 22.6182ZM22.585 22.4513C22.4991 22.4513 22.4127 22.4648 22.33 22.4923H22.84C22.7573 22.4648 22.6709 22.4513 22.585 22.4513ZM31.65 20.4982C31.65 20.3958 31.6244 20.2976 31.5789 20.2104L25.1089 25.3999L25.1103 25.7999C25.1105 25.7999 25.1106 25.7999 25.1108 25.7999C25.2782 25.7993 25.4517 25.7468 25.5916 25.636L25.5928 25.6351L31.3993 21.0015C31.3996 21.0014 31.3998 21.0012 31.4 21.001C31.4712 20.9445 31.5338 20.8725 31.5789 20.786C31.6244 20.6988 31.65 20.6006 31.65 20.4982Z" fill="white" stroke="white" stroke-width="0.8" stroke-linejoin="bevel"/>
</svg>
